# xmcd
#
# Track frame offsets:
#	150
#	23416
#	49410
#	69084
#	70490
#	88574
#	115514
#	134864
#	137068
#	153600
#	175511
#	198214
#	230303
#	260693
#	296735
#	322455
#
# Disc length: 4342 seconds
#
# Revision: 1
# Processed by: cddbd v1.5.2PL0 Copyright (c) Steve Scherf et al.
# Submitted via: audiograbber 1.83.01
#
DISCID=ec10f410
DTITLE=Jimi Bott - Bott and Paid For
DYEAR=2005
DGENRE=Blues
TTITLE0=Jumpin' With Jimi
TTITLE1=(Oh) I'm Slippin'
TTITLE2=Your Eyes (Give You Away)
TTITLE3=Introduction
TTITLE4=Blue Midnight
TTITLE5=Kiss Me Or Cuss
TTITLE6=My First Crime
TTITLE7=Rockinitis Drum Intro
TTITLE8=Rockinitis
TTITLE9=The Alchemist
TTITLE10=(Oh Baby) You Don't Have To Go
TTITLE11=Leave Me Alone
TTITLE12=(Funky ) Tin Pan Alley
TTITLE13=Bott and Paid For !
TTITLE14=Toothache
TTITLE15=Jokin'
EXTD=
EXTT0=
EXTT1=
EXTT2=
EXTT3=
EXTT4=
EXTT5=
EXTT6=
EXTT7=
EXTT8=
EXTT9=
EXTT10=
EXTT11=
EXTT12=
EXTT13=
EXTT14=
EXTT15=
PLAYORDER=
